<?xml version="1.0" standalone="no"?>
<!DOCTYPE svg PUBLIC "-//W3C//DTD SVG 20010904//EN"
 "http://www.w3.org/TR/2001/REC-SVG-20010904/DTD/svg10.dtd">
<svg version="1.0" xmlns="http://www.w3.org/2000/svg"
 width="512.000000pt" height="512.000000pt" viewBox="0 0 512.000000 512.000000"
 preserveAspectRatio="xMidYMid meet">

<g transform="translate(0.000000,512.000000) scale(0.100000,-0.100000)"
fill="#E67131" stroke="none">
<path d="M410 4674 c-188 -40 -351 -199 -394 -384 -14 -57 -16 -230 -16 -1325
0 -1398 -3 -1329 67 -1454 72 -129 217 -235 357 -260 40 -7 426 -11 1172 -11
1051 0 1113 -1 1118 -17 3 -10 41 -148 85 -306 45 -158 88 -301 96 -316 41
-79 111 -133 207 -157 181 -47 362 86 376 277 4 57 -3 91 -47 255 -29 104 -54
197 -57 207 -13 42 72 14 671 -223 334 -132 615 -240 625 -240 10 0 28 9 41
19 l24 19 5 298 5 299 49 7 c63 9 145 51 198 102 162 155 162 411 1 568 -54
53 -144 98 -209 106 l-44 5 0 252 c0 139 -3 267 -6 285 -5 21 -17 38 -37 50
-38 24 -30 26 -449 -143 -185 -76 -340 -137 -343 -137 -3 0 -5 402 -5 893 0
979 2 944 -60 1068 -64 126 -222 243 -364 268 -41 8 -526 11 -1530 10 -1222 0
-1482 -3 -1536 -15z m3132 -182 c81 -40 148 -111 179 -190 21 -52 23 -78 27
-284 l4 -228 -1801 0 -1801 0 0 183 c0 100 5 211 11 247 20 129 105 236 225
285 l59 25 1515 -3 1515 -2 67 -33z m208 -1480 l0 -628 -147 -60 -148 -59
-335 -5 -335 -5 -56 -26 c-69 -33 -127 -89 -160 -155 -24 -48 -24 -53 -24
-334 0 -157 3 -297 8 -312 l7 -28 -1054 0 c-1045 0 -1056 0 -1111 21 -31 11
-75 35 -98 53 -49 37 -110 123 -128 181 -10 31 -14 260 -16 999 -2 528 -1 966
1 973 4 11 331 13 1801 13 l1795 0 0 -628z m830 -859 c0 -219 3 -588 7 -821
l6 -423 -45 18 c-25 10 -261 103 -525 208 l-480 189 -7 399 c-4 220 -4 402 -1
405 6 7 1026 421 1038 422 4 0 7 -179 7 -397z m-1200 -423 l0 -380 -277 0
c-313 0 -334 4 -383 77 -25 36 -25 39 -28 287 -3 245 -2 252 20 295 13 25 36
54 51 65 30 22 46 23 530 34 l87 2 0 -380z m1423 244 c57 -19 120 -81 143
-139 50 -132 -38 -294 -173 -321 l-33 -6 0 241 c0 132 4 241 8 241 5 0 29 -7
55 -16z m-1533 -996 c66 -235 69 -267 32 -318 -71 -95 -207 -93 -263 5 -20 34
-159 522 -151 530 3 3 76 5 162 5 l158 0 62 -222z"/>
<path d="M441 4368 c-171 -30 -229 -250 -96 -366 47 -42 77 -53 141 -53 148 0
255 155 199 289 -41 97 -138 149 -244 130z m83 -164 c46 -46 -16 -132 -70 -96
-51 33 -28 111 33 112 12 0 29 -7 37 -16z"/>
<path d="M1014 4351 c-68 -31 -124 -117 -124 -192 0 -89 69 -180 156 -205 203
-59 361 184 221 342 -63 72 -166 95 -253 55z m122 -139 c13 -8 34 -46 34 -61
0 -20 -40 -51 -64 -51 -50 0 -75 63 -39 102 16 18 49 23 69 10z"/>
<path d="M1666 4363 c-35 -9 -96 -55 -115 -87 -57 -92 -47 -190 28 -266 83
-86 195 -93 287 -17 121 100 89 300 -58 361 -36 15 -101 19 -142 9z m87 -154
c27 -15 37 -28 37 -53 0 -29 -29 -56 -61 -56 -55 0 -79 60 -39 100 23 23 33
24 63 9z"/>
</g>
</svg>
