<?xml version="1.0" standalone="no"?>
<!DOCTYPE svg PUBLIC "-//W3C//DTD SVG 20010904//EN"
 "http://www.w3.org/TR/2001/REC-SVG-20010904/DTD/svg10.dtd">
<svg version="1.0" xmlns="http://www.w3.org/2000/svg"
 width="512.000000pt" height="512.000000pt" viewBox="0 0 512.000000 512.000000"
 preserveAspectRatio="xMidYMid meet">

<g transform="translate(0.000000,512.000000) scale(0.100000,-0.100000)"
fill="#E67131" stroke="none">
<path d="M2487 5106 c-55 -20 -106 -66 -127 -117 -8 -19 -25 -30 -68 -44 -239
-75 -458 -281 -546 -516 -28 -73 -56 -201 -56 -252 0 -29 -5 -35 -35 -45 -19
-7 -52 -33 -73 -57 -67 -76 -78 -166 -32 -256 l20 -39 -22 -42 c-17 -33 -23
-60 -23 -118 0 -65 4 -82 29 -128 35 -62 87 -107 149 -128 38 -13 46 -20 51
-47 12 -59 104 -231 159 -298 51 -61 155 -152 205 -178 20 -11 22 -19 22 -92
0 -67 -3 -81 -17 -86 -177 -62 -463 -263 -463 -325 0 -28 28 -58 54 -58 9 0
38 19 64 43 26 23 57 51 70 61 l22 19 0 -311 0 -312 -135 0 -135 0 0 213 c0
229 -3 246 -50 249 -14 1 -238 1 -498 0 -457 -2 -473 -3 -492 -22 -19 -19 -20
-33 -20 -230 l0 -210 -154 0 c-127 0 -157 -3 -170 -16 -14 -13 -16 -48 -16
-225 l0 -209 -69 0 c-38 0 -81 -4 -95 -10 -27 -10 -43 -49 -29 -73 6 -10 364
-307 511 -422 1 -1 -114 -96 -255 -211 -268 -218 -284 -235 -247 -275 16 -18
36 -19 436 -19 l418 0 0 -143 c0 -127 2 -146 18 -160 17 -16 148 -17 1674 -17
1591 0 1656 1 1671 18 14 15 17 42 17 160 l0 142 418 0 c400 0 420 1 436 19
37 40 22 57 -246 275 l-257 209 227 184 c125 102 242 197 260 213 35 31 40 55
18 86 -14 18 -32 19 -465 22 l-451 3 -25 -25 c-20 -20 -25 -35 -25 -73 l0 -47
-50 49 -50 50 88 88 89 89 34 -18 c49 -25 143 -24 200 4 31 15 125 103 305
284 275 278 284 290 284 380 0 172 -187 290 -342 215 -62 -30 -536 -494 -568
-557 -28 -55 -31 -150 -6 -199 20 -39 23 -34 -86 -133 l-79 -71 -153 151 c-84
84 -161 152 -171 152 -9 0 -57 -38 -104 -85 -48 -47 -90 -85 -94 -85 -4 0 -7
29 -7 65 0 105 -51 179 -140 206 l-40 12 0 164 c0 150 -2 165 -20 183 -25 25
-52 26 -73 2 -14 -16 -17 -44 -17 -185 l0 -167 -459 0 c-404 0 -461 -2 -475
-16 -20 -19 -20 -44 -2 -70 14 -18 33 -19 539 -22 l525 -3 26 -26 c25 -25 26
-30 26 -141 l0 -115 -108 -111 c-142 -147 -176 -217 -120 -247 32 -17 61 -3
90 43 15 24 121 137 237 252 l209 209 49 -41 c26 -22 84 -77 127 -121 l80 -80
-57 -60 c-60 -63 -69 -87 -39 -114 32 -29 60 -20 121 38 l57 54 87 -87 87 -87
0 -53 0 -52 -839 0 -840 0 -3 178 c-2 133 -7 183 -17 195 -12 15 -40 17 -217
17 l-204 0 0 215 c0 202 -1 216 -20 235 -19 19 -20 33 -20 363 l0 343 76 37
c42 21 77 37 78 35 1 -2 7 -33 13 -70 15 -90 49 -162 111 -229 157 -172 426
-177 591 -11 72 72 99 122 120 230 l17 83 90 -45 c168 -85 324 -222 431 -377
52 -76 81 -93 113 -64 29 27 25 56 -19 121 -135 201 -355 379 -578 467 l-43
17 0 80 c0 72 2 80 23 91 49 26 153 117 204 178 55 67 147 239 159 298 5 27
13 34 51 47 62 21 114 66 149 128 25 46 29 63 29 128 0 58 -6 85 -23 118 l-22
42 19 38 c28 55 35 105 21 161 -14 59 -73 132 -122 152 -42 17 -48 25 -48 75
0 65 -37 192 -83 289 -100 207 -277 366 -490 441 -66 23 -80 31 -93 60 -47 98
-165 146 -267 110z m123 -111 c60 -31 60 -36 58 -457 l-3 -383 -108 -3 -108
-3 3 400 c3 383 4 400 23 421 37 41 86 50 135 25z m-270 -500 l0 -345 -270 0
-270 0 0 33 c0 51 37 184 70 256 61 129 152 234 277 317 56 37 155 83 181 84
9 0 12 -76 12 -345z m561 298 c79 -39 109 -62 190 -142 81 -82 102 -110 142
-191 45 -92 72 -184 79 -265 l3 -40 -268 -3 -267 -2 0 345 c0 289 2 345 14
345 8 0 56 -21 107 -47z m547 -781 c40 -37 50 -88 27 -136 -29 -60 -51 -66
-250 -66 -162 0 -177 -2 -195 -20 -24 -24 -25 -38 -4 -68 14 -21 22 -22 141
-22 l126 0 -5 -142 c-5 -115 -11 -158 -31 -220 -70 -218 -242 -396 -454 -472
-387 -137 -811 75 -941 472 -20 63 -26 104 -30 220 l-5 142 511 0 c556 0 542
-1 542 55 0 55 4 55 -603 55 -620 0 -599 -2 -632 66 -26 56 -16 99 33 141 l27
23 856 0 857 0 30 -28z m-1744 -308 c13 -5 16 -25 16 -115 0 -60 -4 -109 -8
-109 -14 0 -60 54 -71 83 -14 36 -14 76 0 116 11 31 29 38 63 25z m1775 -25
c14 -40 14 -80 0 -116 -11 -29 -57 -83 -71 -83 -14 0 -10 218 5 223 34 14 55
6 66 -24z m-1119 -941 c138 -37 361 -25 494 28 17 7 18 0 14 -147 -3 -140 -6
-159 -29 -209 -37 -79 -72 -115 -145 -151 -53 -26 -76 -32 -133 -32 -120 0
-226 65 -278 171 -26 54 -28 66 -31 216 -4 151 -3 158 15 152 10 -4 52 -17 93
-28z m2501 -513 c60 -31 83 -102 56 -168 -18 -43 -481 -496 -526 -514 -96 -40
-200 56 -171 157 7 26 67 92 222 248 263 264 296 292 349 292 22 0 53 -7 70
-15z m-3371 -270 l0 -175 -420 0 -420 0 0 175 0 175 420 0 420 0 0 -175z
m-530 -460 l0 -175 -218 0 c-121 0 -267 3 -325 7 l-107 6 0 169 0 168 325 0
325 0 0 -175z m950 0 l0 -175 -420 0 -420 0 0 175 0 175 420 0 420 0 0 -175z
m-1042 -672 l2 -393 -325 0 c-179 0 -325 2 -325 4 0 2 71 61 158 132 247 201
282 233 282 259 0 19 -45 61 -217 201 -120 97 -220 180 -221 185 -2 6 133 8
320 7 l323 -3 3 -392z m4030 388 c-1 -5 -101 -88 -220 -185 -166 -135 -218
-183 -218 -200 0 -28 21 -48 253 -235 103 -84 187 -154 187 -157 0 -2 -146 -4
-325 -4 l-325 0 0 388 c0 214 3 392 7 395 10 10 645 8 641 -2z m-3428 -141 l0
-140 -245 0 -245 0 0 140 0 140 245 0 245 0 0 -140z m880 0 l0 -140 -385 0
-385 0 0 140 0 140 385 0 385 0 0 -140z m1790 -605 l0 -355 -1580 0 -1580 0 0
355 0 355 1580 0 1580 0 0 -355z"/>
<path d="M2160 3580 c-27 -27 -35 -65 -20 -101 35 -83 140 -56 140 37 0 71
-73 111 -120 64z"/>
<path d="M2860 3580 c-63 -63 -11 -167 73 -146 50 12 66 100 26 142 -28 29
-72 31 -99 4z"/>
<path d="M2382 3188 c-23 -23 -14 -66 21 -91 75 -56 190 -64 277 -19 62 31 76
49 66 85 -9 39 -50 46 -99 17 -52 -29 -123 -30 -172 -1 -40 24 -75 27 -93 9z"/>
<path d="M1230 640 c-11 -11 -20 -27 -20 -35 0 -19 66 -92 90 -100 27 -9 59
11 66 41 5 21 -1 34 -37 70 -48 49 -69 54 -99 24z"/>
<path d="M1520 624 c-45 -41 -53 -80 -20 -109 26 -24 60 -14 99 30 37 42 40
78 9 99 -32 23 -43 20 -88 -20z"/>
<path d="M3517 632 c-26 -29 -20 -55 21 -95 44 -43 75 -47 97 -13 15 22 15 27
1 54 -18 36 -62 72 -86 72 -9 0 -24 -8 -33 -18z"/>
<path d="M3790 614 c-43 -39 -51 -72 -24 -98 25 -26 54 -19 95 23 44 44 48 62
19 91 -28 28 -44 25 -90 -16z"/>
<path d="M1844 475 c-20 -30 -10 -63 23 -76 33 -12 1353 -12 1386 0 33 13 43
46 23 76 l-16 25 -700 0 -700 0 -16 -25z"/>
<path d="M1294 390 c-24 -9 -84 -75 -84 -93 0 -25 31 -57 55 -57 30 0 93 54
101 85 11 46 -28 81 -72 65z"/>
<path d="M3540 364 c-46 -42 -54 -86 -19 -104 30 -17 63 -5 98 35 36 42 38 58
11 85 -28 28 -44 25 -90 -16z"/>
<path d="M3767 382 c-26 -29 -20 -55 21 -95 42 -41 70 -46 95 -19 26 28 21 48
-23 92 -44 44 -68 50 -93 22z"/>
<path d="M1492 378 c-23 -23 -13 -63 26 -101 42 -41 70 -46 95 -19 26 29 20
55 -21 95 -39 38 -77 48 -100 25z"/>
<path d="M1089 5033 c-41 -73 -49 -80 -123 -121 l-78 -44 80 -44 c78 -43 82
-47 125 -126 l45 -81 41 74 c22 41 42 77 43 80 2 3 38 25 81 48 42 24 77 46
77 49 0 4 -34 25 -76 47 -72 38 -77 43 -117 117 -23 43 -45 78 -48 78 -4 0
-26 -35 -50 -77z"/>
<path d="M3933 5032 c-40 -75 -44 -79 -117 -117 -42 -22 -76 -43 -76 -47 0 -4
36 -26 80 -49 43 -23 82 -50 85 -58 3 -9 22 -45 42 -80 l36 -64 44 81 c43 79
46 82 125 125 l81 45 -54 30 c-30 17 -66 37 -81 45 -15 9 -44 47 -68 91 -23
42 -45 76 -48 76 -4 0 -26 -35 -49 -78z"/>
<path d="M203 3912 c-41 -76 -44 -80 -123 -122 l-80 -43 79 -44 c53 -29 86
-54 99 -76 10 -17 31 -54 47 -81 l28 -49 44 82 c39 71 51 85 94 107 27 13 63
33 80 43 l31 19 -81 44 c-78 42 -82 46 -122 121 -23 42 -45 77 -48 77 -3 0
-25 -35 -48 -78z"/>
<path d="M4821 3912 c-40 -75 -44 -79 -122 -121 l-81 -43 31 -19 c17 -10 53
-30 80 -43 43 -22 55 -36 94 -107 l44 -82 28 49 c16 27 37 64 47 81 13 22 46
47 99 76 l81 44 -83 45 c-80 43 -84 47 -123 121 -23 42 -44 77 -47 77 -3 0
-25 -35 -48 -78z"/>
<path d="M655 3055 c-14 -13 -25 -29 -25 -35 0 -21 82 -100 105 -100 27 0 55
29 55 57 0 21 -80 103 -100 103 -6 0 -22 -11 -35 -25z"/>
<path d="M974 3070 c-31 -12 -74 -68 -74 -95 0 -29 24 -55 51 -55 10 0 37 16
59 36 47 43 54 83 18 108 -25 18 -25 18 -54 6z"/>
<path d="M4092 3064 c-36 -25 -29 -65 18 -108 43 -39 70 -45 94 -20 25 25 19
61 -16 98 -41 42 -67 51 -96 30z"/>
<path d="M4375 3039 c-27 -25 -45 -50 -45 -64 0 -27 29 -55 57 -55 21 0 103
80 103 100 0 14 -46 60 -60 60 -6 0 -31 -19 -55 -41z"/>
<path d="M673 2778 c-16 -18 -33 -42 -37 -52 -9 -27 19 -66 49 -66 30 0 93 53
101 85 17 68 -59 89 -113 33z"/>
<path d="M912 2798 c-23 -23 -13 -63 26 -101 41 -40 71 -46 96 -21 26 25 19
57 -22 97 -39 38 -77 48 -100 25z"/>
<path d="M4107 2772 c-20 -21 -37 -47 -37 -59 0 -28 26 -53 54 -53 30 0 96 69
96 101 0 61 -59 66 -113 11z"/>
<path d="M4340 2789 c-17 -30 -5 -63 35 -98 43 -37 79 -40 100 -7 19 28 12 50
-28 94 -38 39 -89 45 -107 11z"/>
<path d="M3652 1984 c-26 -18 -30 -65 -6 -88 23 -24 70 -20 88 6 22 31 20 45
-9 73 -28 29 -42 31 -73 9z"/>
</g>
</svg>
