<?xml version="1.0" standalone="no"?>
<!DOCTYPE svg PUBLIC "-//W3C//DTD SVG 20010904//EN"
 "http://www.w3.org/TR/2001/REC-SVG-20010904/DTD/svg10.dtd">
<svg version="1.0" xmlns="http://www.w3.org/2000/svg"
 width="512.000000pt" height="512.000000pt" viewBox="0 0 512.000000 512.000000"
 preserveAspectRatio="xMidYMid meet">

<g transform="translate(0.000000,512.000000) scale(0.100000,-0.100000)"
fill="#E67131" stroke="none">
<path d="M2030 5024 c-56 -40 -176 -94 -259 -116 -58 -15 -126 -22 -291 -28
-198 -7 -222 -9 -299 -35 -260 -88 -441 -323 -458 -595 -4 -67 1 -125 26 -273
l31 -188 -27 -52 c-24 -45 -28 -63 -28 -137 1 -77 4 -91 34 -148 19 -35 48
-74 64 -88 46 -39 119 -72 174 -79 l49 -7 12 -50 c29 -124 106 -240 209 -316
35 -26 63 -51 63 -57 0 -5 -8 -41 -18 -79 l-18 -69 -104 -43 c-406 -167 -720
-439 -928 -806 -62 -109 -152 -322 -168 -398 -28 -134 -10 -272 52 -400 51
-104 170 -223 274 -274 79 -38 186 -66 258 -66 l42 0 0 -320 0 -320 2029 2
2030 3 27 21 c15 11 37 33 48 48 21 27 21 30 24 1506 l2 1478 30 12 c42 17
104 90 118 138 7 22 12 86 12 143 l0 104 -143 430 c-79 237 -154 449 -165 472
-25 47 -74 89 -129 109 -31 11 -211 13 -929 14 l-891 0 -21 61 c-28 82 -75
158 -143 233 l-57 61 -58 -55 c-62 -58 -116 -100 -131 -100 -4 0 -21 26 -38
57 -37 72 -123 160 -195 201 -30 18 -59 32 -65 31 -5 0 -26 -11 -45 -25z m107
-206 c48 -50 70 -93 107 -205 15 -46 30 -83 32 -83 11 0 175 86 220 116 28 19
54 34 57 34 12 0 58 -100 74 -163 13 -50 14 -92 10 -212 -5 -124 -33 -394 -41
-402 -1 -2 -28 3 -59 9 l-57 12 0 54 c0 76 -17 126 -61 176 -65 74 -87 80
-309 86 -186 6 -197 7 -246 32 -28 15 -65 38 -81 52 -39 33 -90 129 -98 189
l-7 47 -79 0 -79 0 0 -28 c0 -15 6 -51 13 -79 l13 -51 -103 -4 c-93 -4 -109
-8 -176 -41 -138 -68 -216 -187 -225 -346 l-5 -87 -55 -12 c-31 -6 -56 -11
-57 -9 -7 9 -45 280 -45 314 1 225 183 445 408 492 29 6 117 11 195 11 219 0
375 32 522 108 33 17 67 31 75 32 9 0 34 -19 57 -42z m1021 -818 l100 -400
-228 0 -228 0 -7 47 c-4 26 -18 69 -31 95 l-24 47 20 128 c11 70 26 208 32
306 l12 177 127 0 127 0 100 -400z m800 0 l100 -400 -318 0 -318 0 -100 400
-100 400 318 0 318 0 100 -400z m615 378 c19 -18 54 -111 150 -400 l125 -378
-313 0 -313 0 -100 400 -100 400 264 0 c259 0 263 0 287 -22z m-2888 -177
c101 -93 199 -121 423 -121 161 0 163 0 188 -25 l25 -25 -3 -383 -3 -383 -37
-76 c-45 -91 -103 -147 -196 -191 l-67 -32 -255 0 -255 0 -65 31 c-95 46 -153
101 -197 192 l-38 76 -3 380 c-2 283 0 393 9 426 16 55 97 141 149 157 19 6
91 11 159 12 l124 1 42 -39z m-645 -601 c0 -177 1 -173 -63 -146 -125 52 -126
238 -2 292 66 29 65 31 65 -146z m1529 132 c49 -36 66 -70 66 -132 0 -44 -5
-66 -21 -86 -28 -39 -63 -63 -101 -70 l-33 -6 0 162 0 163 33 -7 c17 -3 43
-14 56 -24z m711 -347 c0 -46 -4 -60 -25 -80 l-24 -25 -269 0 c-252 0 -271 1
-293 19 l-24 20 53 52 c28 29 52 56 52 61 0 4 119 8 265 8 l265 0 0 -55z m800
0 c0 -46 -4 -60 -25 -80 l-24 -25 -271 0 -271 0 -24 25 c-21 20 -25 34 -25 80
l0 55 320 0 320 0 0 -55z m800 0 c0 -46 -4 -60 -25 -80 l-24 -25 -271 0 -271
0 -24 25 c-21 20 -25 34 -25 80 l0 55 320 0 320 0 0 -55z m-2370 -135 c17 -42
90 -104 138 -118 26 -8 134 -12 319 -12 l280 0 58 29 c57 29 59 29 84 12 54
-37 88 -41 376 -41 l282 0 58 29 c57 29 59 29 84 12 52 -36 90 -41 312 -41
l219 0 0 -1440 0 -1440 -960 0 -960 0 0 240 0 240 34 0 c18 0 54 3 79 6 l45 6
4 -115 c3 -125 11 -146 72 -191 27 -21 36 -21 726 -21 690 0 699 0 726 21 15
11 37 33 48 48 21 27 21 31 21 1206 0 1175 0 1179 -21 1206 -11 15 -33 37 -48
48 -27 21 -38 21 -486 21 -448 0 -459 0 -486 -21 -15 -11 -37 -33 -48 -48 -20
-27 -21 -41 -24 -457 l-3 -429 -133 0 -134 0 -66 85 c-204 260 -453 446 -776
579 l-104 43 -18 69 c-10 38 -18 74 -18 79 0 6 26 30 59 53 104 76 185 197
212 319 14 60 31 68 49 23z m-459 -503 c6 -32 10 -59 8 -61 -2 -1 -70 -29
-151 -61 l-148 -59 -147 59 c-82 32 -150 60 -152 61 -2 2 2 29 8 61 l13 58
278 0 278 0 13 -58z m1709 -107 l0 -160 240 0 240 0 0 160 0 160 80 0 80 0 0
-400 0 -400 -400 0 -400 0 0 400 0 400 80 0 80 0 0 -160z m320 80 l0 -80 -80
0 -80 0 0 80 0 80 80 0 80 0 0 -80z m-2594 -216 c63 -26 112 -50 107 -55 -19
-19 -199 -159 -203 -159 -6 0 -122 231 -118 235 8 6 65 24 80 24 10 1 70 -20
134 -45z m725 35 c19 -7 35 -13 37 -14 6 -5 -113 -235 -120 -233 -15 5 -208
161 -204 165 8 9 222 92 237 93 9 0 31 -5 50 -11z m-986 -289 c58 -115 107
-210 109 -210 2 0 46 34 97 75 52 41 97 75 100 75 3 0 18 -26 33 -59 l28 -59
-64 -193 -65 -194 -81 -5 c-87 -6 -116 -20 -156 -74 -18 -23 -22 -45 -24 -137
l-4 -109 -159 0 -159 0 0 160 0 160 -80 0 -80 0 0 -160 0 -160 -160 0 -160 0
0 -80 0 -80 320 0 320 0 0 -160 0 -160 -198 0 c-271 0 -358 25 -468 134 -136
137 -168 319 -89 518 159 398 402 683 754 884 42 24 77 44 78 44 2 0 50 -94
108 -210z m1345 112 c299 -193 524 -474 665 -830 78 -199 47 -381 -89 -518
-110 -109 -197 -134 -468 -134 l-198 0 0 160 0 160 320 0 320 0 0 80 0 80
-160 0 -160 0 0 160 0 160 -80 0 -80 0 0 -160 0 -160 -159 0 -159 0 -4 109
c-2 92 -6 114 -24 137 -40 54 -69 68 -156 74 l-81 5 -65 194 -64 193 28 59
c15 33 30 59 33 59 3 0 48 -34 100 -75 51 -41 95 -75 97 -75 2 0 51 95 109
210 l105 210 43 -21 c23 -12 80 -46 127 -77z m-755 -28 l44 -36 -34 -69 c-32
-62 -38 -69 -65 -69 -27 0 -33 7 -65 69 l-34 69 42 36 c23 19 48 35 55 36 8 0
33 -16 57 -36z m21 -496 l52 -158 -128 0 -129 0 50 148 c27 81 51 153 54 160
3 7 15 12 27 10 18 -3 29 -26 74 -160z m1604 -158 l0 -160 320 0 320 0 0 160
0 160 160 0 160 0 0 -640 0 -640 -640 0 -640 0 0 118 0 117 44 28 c24 15 73
59 109 97 117 123 174 281 164 451 -6 100 -27 167 -107 342 l-58 127 84 0 84
0 0 -160z m480 80 l0 -80 -160 0 -160 0 0 80 0 80 160 0 160 0 0 -80z m-1760
-319 l0 -79 -47 -7 c-103 -15 -196 -84 -243 -180 -19 -41 -24 -66 -24 -135 -1
-78 2 -90 33 -148 19 -35 48 -74 64 -88 45 -38 117 -71 170 -79 l47 -7 0 -79
0 -79 -400 0 -400 0 0 79 0 79 47 7 c53 8 125 41 170 79 16 14 45 53 64 88 31
58 34 70 33 148 0 72 -4 93 -26 136 -15 28 -38 65 -52 81 -33 39 -129 90 -188
98 l-48 7 0 79 0 79 400 0 400 0 0 -79z m-714 -267 c53 -39 69 -71 69 -134 0
-63 -16 -95 -69 -134 -23 -18 -45 -22 -137 -24 l-109 -4 0 162 0 162 109 -4
c92 -2 114 -6 137 -24z m874 -134 l0 -160 -95 0 c-109 0 -148 12 -188 59 -48
57 -48 145 0 202 40 47 75 58 186 59 l97 0 0 -160z m-1118 -429 c3 -118 12
-141 72 -185 27 -21 38 -21 486 -21 448 0 459 0 486 21 60 44 69 67 72 185 l4
109 159 0 159 0 0 -240 0 -240 -880 0 -880 0 0 240 0 240 159 0 159 0 4 -109z"/>
<path d="M1385 3895 c-50 -49 -15 -135 55 -135 41 0 80 39 80 80 0 41 -39 80
-80 80 -19 0 -40 -9 -55 -25z"/>
<path d="M2025 3895 c-50 -49 -15 -135 55 -135 41 0 80 39 80 80 0 41 -39 80
-80 80 -19 0 -40 -9 -55 -25z"/>
<path d="M1996 3405 c-8 -43 -50 -94 -93 -111 -23 -10 -82 -14 -208 -14 l-175
0 0 -81 0 -81 203 4 202 3 63 34 c35 19 74 48 88 64 38 45 71 117 79 170 l7
47 -80 0 -80 0 -6 -35z"/>
</g>
</svg>
